<?xml version="1.0" encoding="UTF-8" standalone="no"?>
<!-- Created with Inkscape (http://www.inkscape.org/) -->

<svg
   xmlns:dc="http://purl.org/dc/elements/1.1/"
   xmlns:cc="http://creativecommons.org/ns#"
   xmlns:rdf="http://www.w3.org/1999/02/22-rdf-syntax-ns#"
   xmlns:svg="http://www.w3.org/2000/svg"
   xmlns="http://www.w3.org/2000/svg"
   xmlns:xlink="http://www.w3.org/1999/xlink"
   xmlns:sodipodi="http://sodipodi.sourceforge.net/DTD/sodipodi-0.dtd"
   xmlns:inkscape="http://www.inkscape.org/namespaces/inkscape"
   id="svg2160"
   sodipodi:docname="numpad.svg"
   viewBox="0 0 633.13 694.83"
   sodipodi:version="0.32"
   version="1.0"
   inkscape:output_extension="org.inkscape.output.svg.inkscape"
   inkscape:version="0.91 r13725">
  <defs
     id="defs2162">
    <linearGradient
       id="linearGradient3548"
       inkscape:collect="always">
      <stop
         id="stop3550"
         style="stop-color:#000000"
         offset="0" />
      <stop
         id="stop3552"
         style="stop-color:#000000;stop-opacity:0"
         offset="1" />
    </linearGradient>
    <filter
       id="filter4185"
       inkscape:collect="always">
      <feGaussianBlur
         id="feGaussianBlur4187"
         stdDeviation="5.5720244"
         inkscape:collect="always" />
    </filter>
    <filter
       id="filter4541"
       inkscape:collect="always">
      <feGaussianBlur
         id="feGaussianBlur4543"
         stdDeviation="13.178227"
         inkscape:collect="always" />
    </filter>
    <linearGradient
       id="linearGradient2835"
       y2="564.73"
       xlink:href="#linearGradient3548"
       gradientUnits="userSpaceOnUse"
       x2="656.94"
       gradientTransform="translate(10.74799,14.330998)"
       y1="467.02"
       x1="656.94"
       inkscape:collect="always" />
    <linearGradient
       id="linearGradient2843"
       y2="570.95"
       xlink:href="#linearGradient3548"
       gradientUnits="userSpaceOnUse"
       x2="385.26"
       gradientTransform="translate(10.74799,14.330998)"
       y1="445.6"
       x1="385.26"
       inkscape:collect="always" />
    <linearGradient
       id="linearGradient2851"
       y2="169.24"
       xlink:href="#linearGradient3548"
       gradientUnits="userSpaceOnUse"
       x2="386.69"
       gradientTransform="translate(10.74799,14.330998)"
       y1="77.123"
       x1="386.69"
       inkscape:collect="always" />
    <linearGradient
       id="linearGradient2859"
       y2="158.53"
       xlink:href="#linearGradient3548"
       gradientUnits="userSpaceOnUse"
       x2="522.13"
       gradientTransform="translate(10.74799,14.330998)"
       y1="69.982"
       x1="522.13"
       inkscape:collect="always" />
    <linearGradient
       id="linearGradient2867"
       y2="169.24"
       xlink:href="#linearGradient3548"
       gradientUnits="userSpaceOnUse"
       x2="657.57"
       gradientTransform="translate(10.74799,14.330998)"
       y1="65.697"
       x1="657.57"
       inkscape:collect="always" />
    <linearGradient
       id="linearGradient2875"
       y2="302.5"
       xlink:href="#linearGradient3548"
       gradientUnits="userSpaceOnUse"
       x2="386.69"
       gradientTransform="translate(10.74799,14.33099)"
       y1="181.38"
       x1="386.69"
       inkscape:collect="always" />
    <linearGradient
       id="linearGradient2883"
       y2="302.5"
       xlink:href="#linearGradient3548"
       gradientUnits="userSpaceOnUse"
       x2="522.13"
       gradientTransform="translate(10.74799,14.33099)"
       y1="202.81"
       x1="522.13"
       inkscape:collect="always" />
    <linearGradient
       id="linearGradient2891"
       y2="302.5"
       xlink:href="#linearGradient3548"
       gradientUnits="userSpaceOnUse"
       x2="657.57"
       gradientTransform="translate(10.74799,14.33099)"
       y1="195.66"
       x1="657.57"
       inkscape:collect="always" />
    <linearGradient
       id="linearGradient2899"
       y2="435.76"
       xlink:href="#linearGradient3548"
       gradientUnits="userSpaceOnUse"
       x2="378.36"
       gradientTransform="translate(10.74799,14.33099)"
       y1="319.92"
       x1="376.93"
       inkscape:collect="always" />
    <linearGradient
       id="linearGradient2907"
       y2="435.76"
       xlink:href="#linearGradient3548"
       gradientUnits="userSpaceOnUse"
       x2="514.04"
       gradientTransform="translate(10.74799,14.33099)"
       y1="327.06"
       x1="514.04"
       inkscape:collect="always" />
    <linearGradient
       id="linearGradient2915"
       y2="435.76"
       xlink:href="#linearGradient3548"
       gradientUnits="userSpaceOnUse"
       x2="657.57"
       gradientTransform="translate(10.74799,14.33099)"
       y1="328.49"
       x1="657.57"
       inkscape:collect="always" />
    <linearGradient
       id="linearGradient2923"
       y2="572.38"
       xlink:href="#linearGradient3548"
       gradientUnits="userSpaceOnUse"
       x2="520.94"
       gradientTransform="translate(10.74799,14.331005)"
       y1="452.74"
       x1="520.94"
       inkscape:collect="always" />
    <filter
       id="filter3947"
       height="1.3293"
       width="1.1647"
       y="-.16467"
       x="-.082334"
       inkscape:collect="always">
      <feGaussianBlur
         id="feGaussianBlur3949"
         stdDeviation="0.97991945"
         inkscape:collect="always" />
    </filter>
    <filter
       id="filter3977"
       inkscape:collect="always">
      <feGaussianBlur
         id="feGaussianBlur3979"
         stdDeviation="0.50685489"
         inkscape:collect="always" />
    </filter>
  </defs>
  <sodipodi:namedview
     id="namedview2164"
     bordercolor="#666666"
     inkscape:pageshadow="2"
     inkscape:window-y="0"
     pagecolor="#ffffff"
     inkscape:window-height="1056"
     inkscape:zoom="0.7001799"
     inkscape:window-x="0"
     borderlayer="true"
     showgrid="false"
     borderopacity="1.0"
     inkscape:current-layer="layer1"
     inkscape:cx="526.18109"
     inkscape:cy="372.04724"
     inkscape:window-width="1920"
     inkscape:pageopacity="0.0"
     inkscape:document-units="mm"
     inkscape:window-maximized="1" />
  <g
     id="layer1"
     inkscape:label="Layer 1"
     inkscape:groupmode="layer"
     transform="translate(-214.23 -34.277)">
    <rect
       x="753.698"
       y="164.291"
       width="28.563999"
       height="14.282"
       ry="0"
       rx="0"
       style="fill:#000000;stroke-width:0;filter:url(#filter3977)"
       id="rect3951" />
    <rect
       x="753.698"
       y="192.291"
       width="28.563999"
       height="14.282"
       ry="0"
       rx="0"
       style="opacity:0.76340996;fill:#000000;stroke-width:0;filter:url(#filter3947)"
       id="rect2932" />
    <rect
       x="275.67798"
       y="82.885002"
       width="512.72998"
       height="601.27002"
       ry="21.423"
       rx="21.423"
       style="fill:#000000;stroke-width:0;filter:url(#filter4541)"
       id="rect3558" />
    <rect
       x="275.67798"
       y="82.885002"
       width="512.72998"
       height="601.27002"
       ry="21.423"
       rx="21.423"
       style="fill:#9f9f79;stroke-width:0"
       id="rect3556" />
    <rect
       x="314.23798"
       y="111.449"
       width="435.60001"
       height="544.15002"
       ry="21.423"
       rx="21.423"
       style="fill:#928d8d;stroke-width:0"
       id="rect2575" />
    <rect
       x="312.23798"
       y="111.449"
       width="435.60001"
       height="544.15002"
       ry="21.423"
       rx="21.423"
       style="fill:#1e1e1e;stroke-width:0;fill-opacity:1"
       id="rect3546" />
    <rect
       x="62.368999"
       y="56.844002"
       width="234.23"
       height="181.38"
       transform="matrix(0.51318,0,0,0.64286,439.338,487.251)"
       rx="41.745998"
       style="opacity:0.85803995;fill:#666666;stroke-width:0;filter:url(#filter4185)"
       ry="33.325001"
       id="rect2169" />
    <rect
       x="471.58798"
       y="522.13098"
       width="120.2"
       height="113.85"
       ry="21.423"
       rx="21.423"
       style="fill:#c0be70;stroke-width:0"
       id="rect2171" />
    <rect
       x="480.30798"
       y="530.401"
       width="102.75"
       height="97.321999"
       ry="21.423"
       rx="21.423"
       style="fill:#dcd985;stroke-width:0"
       id="rect3144" />
    <rect
       x="480.30798"
       y="530.401"
       width="102.75"
       height="97.321999"
       ry="21.423"
       rx="21.423"
       style="opacity:0.71924002;fill:url(#linearGradient2923);stroke-width:0"
       id="rect3146" />
    <path
       inkscape:connector-curvature="0"
       d="m 511.51858,578.77994 c 0,-5.44117 0.59908,-9.81735 1.77659,-13.12852 1.20849,-3.32086 2.98508,-5.88654 5.32976,-7.68735 2.36534,-1.80081 5.34009,-2.70122 8.91393,-2.70122 2.63389,0 4.94759,0.50345 6.93076,1.51036 1.98316,0.97786 3.62548,2.41077 4.92693,4.29872 1.29112,1.8589 2.31369,4.14381 3.04705,6.84503 0.73336,2.68186 1.10521,6.30285 1.10521,10.86298 0,5.40244 -0.58876,9.76894 -1.77659,13.09948 -1.17751,3.30149 -2.9541,5.86717 -5.32977,7.68734 -2.34468,1.80082 -5.3091,2.70123 -8.90359,2.70123 -4.74101,0 -8.45945,-1.58782 -11.15532,-4.77313 -3.24331,-3.82431 -4.86496,-10.06907 -4.86496,-18.71492 m 6.1974,0 c 0,7.56149 0.93994,12.59602 2.81981,15.10361 1.90054,2.4979 4.2349,3.73717 7.00307,3.73717 2.76817,0 5.09219,-1.25863 6.96174,-3.76622 1.90054,-2.50758 2.85081,-7.53244 2.85081,-15.07456 0,-7.58085 -0.95027,-12.61539 -2.85081,-15.10361 -1.86955,-2.48822 -4.21423,-3.73717 -7.03405,-3.73717 -2.76817,0 -4.97857,1.10372 -6.63121,3.30149 -2.07613,2.79804 -3.11936,7.98749 -3.11936,15.53929"
       style="fill:#000000"
       id="text3156" />
    <rect
       x="62.368999"
       y="56.844002"
       width="234.23"
       height="181.38"
       ry="33.325001"
       rx="41.745998"
       transform="matrix(0.51318,0,0,0.64286,575.968,358.271)"
       style="opacity:0.85803995;fill:#666666;stroke-width:0;filter:url(#filter4185)"
       id="rect4263" />
    <rect
       x="608.21796"
       y="393.16098"
       width="120.2"
       height="113.85"
       ry="21.423"
       rx="21.423"
       style="fill:#c0be70;stroke-width:0"
       id="rect4265" />
    <rect
       x="616.948"
       y="401.431"
       width="102.75"
       height="97.321999"
       ry="21.423"
       rx="21.423"
       style="fill:#dcd985;stroke-width:0"
       id="rect4267" />
    <rect
       x="616.948"
       y="401.431"
       width="102.75"
       height="97.321999"
       ry="21.423"
       rx="21.423"
       style="opacity:0.71924002;fill:url(#linearGradient2915);stroke-width:0"
       id="rect4269" />
    <path
       inkscape:connector-curvature="0"
       d="m 649.05954,461.8722 5.79457,-0.50345 c 0.49579,2.556 1.43573,4.40522 2.81982,5.55735 1.38408,1.15214 3.16067,1.72337 5.31943,1.72337 1.85922,0 3.48088,-0.39696 4.86496,-1.19087 1.40475,-0.7939 2.55127,-1.84922 3.44989,-3.17563 0.88829,-1.33609 1.64231,-3.1369 2.24139,-5.40244 0.60941,-2.25586 0.90895,-4.56013 0.90895,-6.90312 0,-0.25173 -0.0103,-0.62932 -0.0413,-1.13278 -1.19817,1.80082 -2.85081,3.26277 -4.95792,4.39554 -2.07613,1.11341 -4.32785,1.66527 -6.7655,1.66527 -4.05929,0 -7.49885,-1.3845 -10.31867,-4.14381 -2.80949,-2.75931 -4.21423,-6.40935 -4.21423,-10.93075 0,-4.66663 1.45639,-8.42317 4.38982,-11.26962 2.94377,-2.84645 6.63122,-4.26967 11.05203,-4.26967 3.19167,0 6.10444,0.80359 8.73834,2.42045 2.66488,1.60718 4.66871,3.91145 6.03213,6.90312 1.38409,2.97232 2.07613,7.2904 2.07613,12.93489 0,5.88653 -0.68171,10.57252 -2.04514,14.06765 -1.3531,3.47577 -3.38791,6.12858 -6.09411,7.94876 -2.67521,1.82018 -5.82555,2.73027 -9.45103,2.73027 -3.83206,0 -6.97208,-0.98754 -9.40972,-2.982 -2.43765,-2.00413 -3.89404,-4.82153 -4.38983,-8.44253 m 24.69664,-20.32209 c 0,-3.24341 -0.92961,-5.81876 -2.78883,-7.72608 -1.82823,-1.90731 -4.03864,-2.85613 -6.63122,-2.85613 -2.67521,0 -5.00956,1.02627 -7.00306,3.07881 -1.98317,2.05254 -2.97475,4.70536 -2.97475,7.9778 0,2.92391 0.92961,5.31531 2.80949,7.15486 1.90053,1.82017 4.23489,2.73026 7.00306,2.73026 2.78883,0 5.08187,-0.91009 6.86878,-2.73026 1.80758,-1.83955 2.71653,-4.38586 2.71653,-7.62926"
       style="fill:#000000"
       id="text4271" />
    <rect
       x="62.368999"
       y="56.844002"
       width="234.23"
       height="181.38"
       transform="matrix(0.51318,0,0,0.64286,440.528,358.271)"
       rx="41.745998"
       style="opacity:0.85803995;fill:#666666;stroke-width:0;filter:url(#filter4185)"
       ry="33.325001"
       id="rect4277" />
    <rect
       x="472.77798"
       y="393.16098"
       width="120.2"
       height="113.85"
       ry="21.423"
       rx="21.423"
       style="fill:#c0be70;stroke-width:0"
       id="rect4279" />
    <rect
       x="481.49799"
       y="401.431"
       width="102.75"
       height="97.321999"
       ry="21.423"
       rx="21.423"
       style="fill:#dcd985;stroke-width:0"
       id="rect4281" />
    <rect
       x="481.49799"
       y="401.431"
       width="102.75"
       height="97.321999"
       ry="21.423"
       rx="21.423"
       style="opacity:0.71924002;fill:url(#linearGradient2907);stroke-width:0"
       id="rect4283" />
    <path
       inkscape:connector-curvature="0"
       d="m 521.99218,447.55282 c -2.49961,-0.86168 -4.35883,-2.09127 -5.557,-3.67908 -1.20849,-1.58782 -1.8179,-3.49513 -1.8179,-5.71226 0,-3.34991 1.29112,-6.16731 3.85272,-8.45221 2.57192,-2.27523 5.99082,-3.41768 10.25669,-3.41768 4.28654,0 7.73642,1.1715 10.34966,3.51449 2.61324,2.32364 3.92502,5.1604 3.92502,8.51031 0,2.13967 -0.60941,3.99858 -1.8179,5.58639 -1.17751,1.57814 -2.98508,2.78836 -5.42273,3.65004 3.01607,0.91977 5.30911,2.40109 6.86879,4.45363 1.58033,2.05254 2.37567,4.50204 2.37567,7.34849 0,3.94049 -1.48738,7.24198 -4.4518,9.92384 -2.97476,2.68186 -6.87912,4.01795 -11.72342,4.01795 -4.85463,0 -8.75899,-1.33609 -11.73374,-4.01795 -2.96443,-2.70122 -4.4518,-6.0608 -4.4518,-10.07875 0,-2.99168 0.80566,-5.49926 2.41698,-7.5034 1.62166,-2.03317 3.93535,-3.41767 6.93076,-4.14381 m -1.20849,-9.58498 c 0,2.17841 0.75402,3.95986 2.24139,5.34435 1.49771,1.37482 3.43956,2.07191 5.83589,2.07191 2.32402,0 4.21423,-0.67773 5.69128,-2.04286 1.4977,-1.3845 2.25172,-3.06913 2.25172,-5.0539 0,-2.07191 -0.77468,-3.81463 -2.3137,-5.21849 -1.51836,-1.42322 -3.4189,-2.13 -5.7016,-2.13 -2.29304,0 -4.20391,0.68741 -5.72227,2.07191 -1.51836,1.3845 -2.28271,3.0304 -2.28271,4.95708 m -1.94185,21.26123 c 0,1.61686 0.40283,3.17563 1.20849,4.67631 0.82632,1.51036 2.04514,2.68186 3.64614,3.52418 1.61132,0.81327 3.34659,1.2199 5.19549,1.2199 2.88179,0 5.25746,-0.87136 7.13733,-2.6044 1.87988,-1.73304 2.80949,-3.95017 2.80949,-6.62235 0,-2.72059 -0.97092,-4.97645 -2.91278,-6.7579 -1.92119,-1.78145 -4.32785,-2.66249 -7.2303,-2.66249 -2.84047,0 -5.19548,0.87136 -7.07536,2.63345 -1.84889,1.76209 -2.7785,3.95985 -2.7785,6.5933"
       style="fill:#000000"
       id="text4285" />
    <rect
       x="62.368999"
       y="56.844002"
       width="234.23"
       height="181.38"
       ry="33.325001"
       rx="41.745998"
       transform="matrix(0.51318,0,0,0.64286,305.088,358.271)"
       style="opacity:0.85803995;fill:#666666;stroke-width:0;filter:url(#filter4185)"
       id="rect4291" />
    <rect
       x="337.33798"
       y="393.16098"
       width="120.2"
       height="113.85"
       ry="21.423"
       rx="21.423"
       style="fill:#c0be70;stroke-width:0"
       id="rect4293" />
    <rect
       x="346.05798"
       y="401.431"
       width="102.75"
       height="97.321999"
       ry="21.423"
       rx="21.423"
       style="fill:#dcd985;stroke-width:0"
       id="rect4295" />
    <rect
       x="346.05798"
       y="401.431"
       width="102.75"
       height="97.321999"
       ry="21.423"
       rx="21.423"
       style="opacity:0.71924002;fill:url(#linearGradient2899);stroke-width:0"
       id="rect4297" />
    <path
       inkscape:connector-curvature="0"
       d="m 377.66507,432.50731 0,-5.43149 31.79266,0 0,4.39553 c -3.11936,3.11754 -6.22839,7.26135 -9.30643,12.43143 -3.06771,5.17009 -5.43305,10.49508 -7.10635,15.95561 -1.2085,3.85336 -1.97284,8.07462 -2.3137,12.65411 l -6.1974,0 c 0.0723,-3.62099 0.82632,-7.99716 2.28271,-13.12852 1.44606,-5.12167 3.52219,-10.06907 6.22839,-14.82283 2.72685,-4.77313 5.61897,-8.79108 8.67636,-12.05384 l -24.05624,0"
       style="fill:#000000"
       id="text4299" />
    <rect
       x="62.368999"
       y="56.844002"
       width="234.23"
       height="181.38"
       transform="matrix(0.51318,0,0,0.64286,575.968,225.021)"
       rx="41.745998"
       style="opacity:0.85803995;fill:#666666;stroke-width:0;filter:url(#filter4185)"
       ry="33.325001"
       id="rect4305" />
    <rect
       x="608.21796"
       y="259.91101"
       width="120.2"
       height="113.85"
       ry="21.423"
       rx="21.423"
       style="fill:#c0be70;stroke-width:0"
       id="rect4307" />
    <rect
       x="616.948"
       y="268.17099"
       width="102.75"
       height="97.321999"
       ry="21.423"
       rx="21.423"
       style="fill:#dcd985;stroke-width:0"
       id="rect4309" />
    <rect
       x="616.948"
       y="268.17099"
       width="102.75"
       height="97.321999"
       ry="21.423"
       rx="21.423"
       style="opacity:0.71924002;fill:url(#linearGradient2891);stroke-width:0"
       id="rect4311" />
    <path
       inkscape:connector-curvature="0"
       d="m 679.44746,304.49455 -6.00115,0.44536 c -0.52678,-2.22682 -1.29112,-3.83399 -2.27238,-4.8409 -1.63198,-1.60718 -3.64614,-2.42045 -6.03214,-2.42045 -1.92119,0 -3.60482,0.50345 -5.06121,1.51036 -1.90053,1.29736 -3.38791,3.19499 -4.48278,5.68322 -1.09488,2.48822 -1.66297,6.04144 -1.71461,10.64998 1.45638,-2.08159 3.23297,-3.61132 5.32976,-4.61822 2.09679,-1.00691 4.29686,-1.51036 6.60023,-1.51036 4.01798,0 7.43688,1.39418 10.24637,4.17285 2.84047,2.769 4.25555,6.35126 4.25555,10.7468 0,2.88518 -0.67139,5.57672 -2.00383,8.06494 -1.32211,2.46886 -3.14002,4.36649 -5.46404,5.68322 -2.32403,1.3264 -4.95792,1.98477 -7.90169,1.98477 -5.03022,0 -9.13083,-1.73305 -12.30184,-5.18945 -3.171,-3.46608 -4.75134,-9.18803 -4.75134,-17.13679 0,-8.89757 1.74561,-15.37469 5.25747,-19.412 3.05738,-3.5145 7.17865,-5.27659 12.36381,-5.27659 3.86304,0 7.02372,1.01659 9.48202,3.04977 2.47896,2.03318 3.95601,4.83122 4.4518,8.41349 m -24.62434,19.84769 c 0,1.94604 0.43382,3.80494 1.31179,5.58639 0.88829,1.78146 2.12777,3.14659 3.71844,4.08572 1.58033,0.91978 3.2433,1.3845 4.9889,1.3845 2.54094,0 4.73069,-0.96818 6.56925,-2.89486 1.82823,-1.92667 2.74751,-4.54076 2.74751,-7.85194 0,-3.17563 -0.90895,-5.68321 -2.71653,-7.50339 -1.80757,-1.83954 -4.09028,-2.75931 -6.83779,-2.75931 -2.72686,0 -5.03023,0.91977 -6.93076,2.75931 -1.90054,1.82018 -2.85081,4.22126 -2.85081,7.19358"
       style="fill:#000000"
       id="text4313" />
    <rect
       x="62.368999"
       y="56.844002"
       width="234.23"
       height="181.38"
       ry="33.325001"
       rx="41.745998"
       transform="matrix(0.51318,0,0,0.64286,440.528,225.021)"
       style="opacity:0.85803995;fill:#666666;stroke-width:0;filter:url(#filter4185)"
       id="rect4319" />
    <rect
       x="472.77798"
       y="259.91101"
       width="120.2"
       height="113.85"
       ry="21.423"
       rx="21.423"
       style="fill:#c0be70;stroke-width:0"
       id="rect4321" />
    <rect
       x="481.49799"
       y="268.17099"
       width="102.75"
       height="97.321999"
       ry="21.423"
       rx="21.423"
       style="fill:#dcd985;stroke-width:0"
       id="rect4323" />
    <rect
       x="481.49799"
       y="268.17099"
       width="102.75"
       height="97.321999"
       ry="21.423"
       rx="21.423"
       style="opacity:0.71924002;fill:url(#linearGradient2883);stroke-width:0"
       id="rect4325" />
    <path
       inkscape:connector-curvature="0"
       d="m 512.70641,327.19837 6.33168,-0.50346 c 0.47513,2.89486 1.55968,5.06358 3.25363,6.53522 1.72495,1.44259 3.79075,2.16872 6.19741,2.16872 2.90244,0 5.36075,-1.02627 7.3749,-3.07881 2.00383,-2.05254 3.01607,-4.77313 3.01607,-8.17144 0,-3.22404 -0.97093,-5.76067 -2.92311,-7.62926 -1.92119,-1.8589 -4.44147,-2.78836 -7.57115,-2.78836 -1.94186,0 -3.68746,0.41632 -5.25747,1.24896 -1.55967,0.82295 -2.78883,1.88795 -3.68745,3.20467 l -5.66029,-0.68741 4.76167,-23.64295 24.41775,0 0,5.39276 -19.59411,0 -2.64422,12.37334 c 2.94376,-1.92668 6.04246,-2.88518 9.27544,-2.88518 4.28653,0 7.91201,1.39418 10.85578,4.17286 2.94376,2.78836 4.42081,6.37062 4.42081,10.7468 0,4.16317 -1.29112,7.7648 -3.8837,10.79521 -3.15035,3.72749 -7.44721,5.59608 -12.90092,5.59608 -4.46213,0 -8.1186,-1.1715 -10.94874,-3.52418 -2.81982,-2.343 -4.43115,-5.45085 -4.83398,-9.32357"
       style="fill:#000000"
       id="text4327" />
    <rect
       x="62.368999"
       y="56.844002"
       width="234.23"
       height="181.38"
       transform="matrix(0.51318,0,0,0.64286,305.088,225.021)"
       rx="41.745998"
       style="opacity:0.85803995;fill:#666666;stroke-width:0;filter:url(#filter4185)"
       ry="33.325001"
       id="rect4333" />
    <rect
       x="337.33798"
       y="259.91101"
       width="120.2"
       height="113.85"
       ry="21.423"
       rx="21.423"
       style="fill:#c0be70;stroke-width:0"
       id="rect4335" />
    <rect
       x="346.05798"
       y="268.17099"
       width="102.75"
       height="97.321999"
       ry="21.423"
       rx="21.423"
       style="fill:#dcd985;stroke-width:0"
       id="rect4337" />
    <rect
       x="346.05798"
       y="268.17099"
       width="102.75"
       height="97.321999"
       ry="21.423"
       rx="21.423"
       style="opacity:0.71924002;fill:url(#linearGradient2875);stroke-width:0"
       id="rect4339" />
    <path
       inkscape:connector-curvature="0"
       d="m 396.59812,339.26189 0,-11.02757 -21.30872,0 0,-5.17976 22.41393,-29.82963 4.92693,0 0,29.82963 6.63122,0 0,5.17976 -6.63122,0 0,11.02757 -6.03214,0 m 0,-16.20733 0,-20.75778 -15.37988,20.75778 15.37988,0"
       style="fill:#000000"
       id="text4341" />
    <rect
       x="62.368999"
       y="56.844002"
       width="234.23"
       height="181.38"
       ry="33.325001"
       rx="41.745998"
       transform="matrix(0.51318,0,0,0.64286,575.968,91.762)"
       style="opacity:0.85803995;fill:#666666;stroke-width:0;filter:url(#filter4185)"
       id="rect4347" />
    <rect
       x="608.21796"
       y="126.651"
       width="120.2"
       height="113.85"
       ry="21.423"
       rx="21.423"
       style="fill:#c0be70;stroke-width:0"
       id="rect4349" />
    <rect
       x="616.948"
       y="134.911"
       width="102.75"
       height="97.321999"
       ry="21.423"
       rx="21.423"
       style="fill:#dcd985;stroke-width:0"
       id="rect4351" />
    <rect
       x="616.948"
       y="134.911"
       width="102.75"
       height="97.321999"
       ry="21.423"
       rx="21.423"
       style="opacity:0.71924002;fill:url(#linearGradient2867);stroke-width:0"
       id="rect4353" />
    <path
       inkscape:connector-curvature="0"
       d="m 648.19191,193.85094 6.03213,-0.75518 c 0.69204,3.20467 1.85922,5.51862 3.51186,6.94185 1.6733,1.40386 3.70811,2.10095 6.10444,2.10095 2.83015,0 5.22647,-0.91977 7.16833,-2.75932 1.96251,-1.84922 2.94376,-4.12444 2.94376,-6.84503 0,-2.6044 -0.90895,-4.7344 -2.71653,-6.40935 -1.80757,-1.69432 -4.11094,-2.54631 -6.89977,-2.54631 -1.13619,0 -2.55126,0.213 -4.25554,0.62931 l 0.67138,-4.95708 c 0.40283,0.0387 0.72303,0.0581 0.97093,0.0581 2.57192,0 4.88561,-0.62932 6.94108,-1.88795 2.05548,-1.24895 3.07805,-3.18531 3.07805,-5.80908 0,-2.0719 -0.74369,-3.78558 -2.2414,-5.14103 -1.4977,-1.36514 -3.42922,-2.04286 -5.79457,-2.04286 -2.34468,0 -4.30719,0.6874 -5.86687,2.0719 -1.55968,1.37482 -2.57192,3.4564 -3.01607,6.21572 l -6.03213,-1.00691 c 0.74369,-3.78558 2.41698,-6.71917 5.03022,-8.79108 2.61324,-2.09126 5.85654,-3.1369 9.75058,-3.1369 2.67521,0 5.14384,0.54218 7.39556,1.62654 2.26205,1.07468 3.97667,2.53664 5.1645,4.39554 1.20849,1.86859 1.80758,3.84368 1.80758,5.93494 0,1.99446 -0.5681,3.80495 -1.70429,5.44118 -1.14652,1.62654 -2.83014,2.9239 -5.06121,3.89208 2.90245,0.62932 5.15417,1.93636 6.7655,3.92113 1.61132,1.9654 2.41698,4.44394 2.41698,7.41626 0,4.01794 -1.57001,7.42594 -4.69969,10.23366 -3.11936,2.78836 -7.07537,4.17286 -11.85769,4.17286 -4.3072,0 -7.89136,-1.20055 -10.75249,-3.61132 -2.83015,-2.40108 -4.4518,-5.51862 -4.85463,-9.35261"
       style="fill:#000000"
       id="text4355" />
    <rect
       x="62.368999"
       y="56.844002"
       width="234.23"
       height="181.38"
       transform="matrix(0.51318,0,0,0.64286,440.528,91.762)"
       rx="41.745998"
       style="opacity:0.85803995;fill:#666666;stroke-width:0;filter:url(#filter4185)"
       ry="33.325001"
       id="rect4361" />
    <rect
       x="472.77798"
       y="126.651"
       width="120.2"
       height="113.85"
       ry="21.423"
       rx="21.423"
       style="fill:#c0be70;stroke-width:0"
       id="rect4363" />
    <rect
       x="481.49799"
       y="134.911"
       width="102.75"
       height="97.321999"
       ry="21.423"
       rx="21.423"
       style="fill:#dcd985;stroke-width:0"
       id="rect4365" />
    <rect
       x="481.49799"
       y="134.911"
       width="102.75"
       height="97.321999"
       ry="21.423"
       rx="21.423"
       style="opacity:0.71924002;fill:url(#linearGradient2859);stroke-width:0"
       id="rect4367" />
    <path
       inkscape:connector-curvature="0"
       d="m 544.40611,200.5701 0,5.43149 -32.46404,0 c -0.0413,-1.36513 0.18592,-2.67217 0.70237,-3.92112 0.82632,-2.07191 2.14843,-4.11477 3.95601,-6.12858 1.82823,-2.00414 4.46212,-4.32777 7.90168,-6.9709 5.34009,-4.10508 8.94491,-7.34849 10.82479,-9.73021 1.86955,-2.41077 2.80949,-4.68599 2.80949,-6.81599 0,-2.24617 -0.85731,-4.12444 -2.57192,-5.65417 -1.70429,-1.54909 -3.92502,-2.32363 -6.67253,-2.32363 -2.90245,0 -5.22648,0.81327 -6.97208,2.4495 -1.73527,1.63622 -2.62357,3.89208 -2.64422,6.78694 l -6.1974,-0.60027 c 0.42349,-4.33745 2.02448,-7.62926 4.79265,-9.8948 2.76817,-2.27523 6.48661,-3.41768 11.15532,-3.41768 4.71003,0 8.4388,1.21991 11.18631,3.6694 2.74751,2.4495 4.12127,5.48958 4.12127,9.11058 0,1.83954 -0.40283,3.65004 -1.19816,5.43149 -0.80566,1.78145 -2.14844,3.65004 -4.02831,5.61544 -1.84889,1.97509 -4.94759,4.67631 -9.27544,8.10367 -3.61515,2.84645 -5.93918,4.78281 -6.97208,5.80908 -1.02257,1.0069 -1.86955,2.02349 -2.54093,3.04976 l 24.08722,0"
       style="fill:#000000"
       id="text4369" />
    <rect
       x="62.368999"
       y="56.844002"
       width="234.23"
       height="181.38"
       ry="33.325001"
       rx="41.745998"
       transform="matrix(0.51318,0,0,0.64286,305.088,91.762)"
       style="opacity:0.85803995;fill:#666666;stroke-width:0;filter:url(#filter4185)"
       id="rect4375" />
    <rect
       x="337.33798"
       y="126.651"
       width="120.2"
       height="113.85"
       ry="21.423"
       rx="21.423"
       style="fill:#c0be70;stroke-width:0"
       id="rect4377" />
    <rect
       x="346.05798"
       y="134.911"
       width="102.75"
       height="97.321999"
       ry="21.423"
       rx="21.423"
       style="fill:#dcd985;stroke-width:0"
       id="rect4379" />
    <rect
       x="346.05798"
       y="134.911"
       width="102.75"
       height="97.321999"
       ry="21.423"
       rx="21.423"
       style="opacity:0.71924002;fill:url(#linearGradient2851);stroke-width:0"
       id="rect4381" />
    <path
       inkscape:connector-curvature="0"
       d="m 399.97571,206.00159 -6.02181,0 0,-36.01629 c -1.45639,1.29736 -3.36725,2.59472 -5.7326,3.89208 -2.34468,1.29736 -4.45179,2.27523 -6.33167,2.92391 l 0,-5.47022 c 3.36725,-1.48132 6.32135,-3.28213 8.84162,-5.40245 2.53061,-2.11063 4.31752,-4.16317 5.36075,-6.14794 l 3.88371,0 0,46.22091"
       style="fill:#000000"
       id="text4383" />
    <rect
       x="62.368999"
       y="56.844002"
       width="234.23"
       height="181.38"
       ry="33.325001"
       rx="41.745998"
       transform="matrix(0.51318,0,0,0.64286,303.658,486.101)"
       style="opacity:0.85803995;fill:#666666;stroke-width:0;filter:url(#filter4185)"
       id="rect2260" />
    <rect
       x="335.90799"
       y="520.99103"
       width="120.2"
       height="113.85"
       ry="21.423"
       rx="21.423"
       style="fill:#c0be70;stroke-width:0"
       id="rect2262" />
    <rect
       x="344.638"
       y="529.25098"
       width="102.75"
       height="97.321999"
       ry="21.423"
       rx="21.423"
       style="fill:#dcd985;stroke-width:0"
       id="rect2264" />
    <rect
       x="344.638"
       y="529.25098"
       width="102.75"
       height="97.321999"
       ry="21.423"
       rx="21.423"
       style="opacity:0.71924002;fill:url(#linearGradient2843);stroke-width:0"
       id="rect2266" />
    <path
       inkscape:connector-curvature="0"
       d="m 369.40411,579.31994 3.12811,-9.00746 c 7.21953,2.36531 12.46068,4.41202 15.72345,6.14979 -0.85972,-7.65586 -1.31547,-12.91745 -1.3569,-15.79443 l 9.87117,0 c -0.13465,4.18031 -0.66291,9.43225 -1.56405,15.73651 4.67145,-2.20118 10.02654,-4.23824 16.06525,-6.09187 l 3.12812,9.00746 c -5.75905,1.7764 -11.41452,2.96387 -16.94569,3.55279 2.76559,2.23979 6.67055,6.23667 11.70454,11.99064 l -8.17246,5.39675 c -2.63093,-3.35004 -5.73833,-7.89722 -9.3222,-13.64152 -3.35599,5.9567 -6.30802,10.50387 -8.84573,13.64152 l -8.03781,-5.39675 c 5.26186,-6.05325 9.03218,-10.05013 11.30058,-11.99064 -5.85227,-1.06198 -11.41452,-2.2398 -16.67638,-3.55279"
       style="fill:#000000"
       id="text2268" />
    <rect
       x="62.368999"
       y="56.844002"
       width="234.23"
       height="181.38"
       ry="33.325001"
       rx="41.745998"
       transform="matrix(0.51318,0,0,0.64286,575.338,487.251)"
       style="opacity:0.85803995;fill:#666666;stroke-width:0;filter:url(#filter4185)"
       id="rect2276" />
    <rect
       x="607.58801"
       y="522.13098"
       width="120.2"
       height="113.85"
       ry="21.423"
       rx="21.423"
       style="fill:#c0be70;stroke-width:0"
       id="rect2278" />
    <rect
       x="616.30798"
       y="530.401"
       width="102.75"
       height="97.321999"
       ry="21.423"
       rx="21.423"
       style="fill:#dcd985;stroke-width:0"
       id="rect2280" />
    <rect
       x="616.30798"
       y="530.401"
       width="102.75"
       height="97.321999"
       ry="21.423"
       rx="21.423"
       style="opacity:0.71924002;fill:url(#linearGradient2835);stroke-width:0"
       id="rect2282" />
    <path
       inkscape:connector-curvature="0"
       d="m 648.12993,602.26799 2.91278,-13.37057 -5.66029,0 0,-4.68599 6.6622,0 2.47896,-11.39548 -9.14116,0 0,-4.67631 10.15341,0 2.91277,-13.47706 5.0199,0 -2.91278,13.47706 10.55624,0 2.91278,-13.47706 5.06121,0 -2.91278,13.47706 5.79457,0 0,4.67631 -6.80681,0 -2.50995,11.39548 9.31676,0 0,4.68599 -10.31867,0 -2.91278,13.37057 -5.03023,0 2.8818,-13.37057 -10.51493,0 -2.9231,13.37057 -5.0199,0 m 8.94492,-18.05656 10.51492,0 2.52027,-11.39548 -10.55623,0 -2.47896,11.39548"
       style="fill:#000000"
       id="text2284" />
    <rect
       x="753.698"
       y="164.291"
       width="28.563999"
       height="14.282"
       ry="0"
       rx="0"
       style="opacity:0.80756998;fill:#00ff00;stroke-width:0"
       id="rect5905" />
    <rect
       x="753.698"
       y="192.291"
       width="28.563999"
       height="14.282"
       ry="0"
       rx="0"
       style="opacity:0.80756998;fill:#ff0000;stroke-width:0"
       id="rect5909" />
  </g>
  <metadata
     id="metadata4389">
    <rdf:RDF>
      <cc:Work>
        <dc:format>image/svg+xml</dc:format>
        <dc:type
           rdf:resource="http://purl.org/dc/dcmitype/StillImage" />
        <cc:license
           rdf:resource="http://creativecommons.org/publicdomain/zero/1.0/" />
        <dc:publisher>
          <cc:Agent
             rdf:about="http://openclipart.org/">
            <dc:title>Openclipart</dc:title>
          </cc:Agent>
        </dc:publisher>
        <dc:title></dc:title>
        <dc:date>2008-04-09T20:28:24</dc:date>
        <dc:description />
        <dc:source>https://openclipart.org/detail/16269/clavier-by-niceboy-16269</dc:source>
        <dc:creator>
          <cc:Agent>
            <dc:title>niceboy</dc:title>
          </cc:Agent>
        </dc:creator>
        <dc:subject>
          <rdf:Bag>
            <rdf:li>clavier key</rdf:li>
            <rdf:li>how i did it</rdf:li>
          </rdf:Bag>
        </dc:subject>
      </cc:Work>
      <cc:License
         rdf:about="http://creativecommons.org/publicdomain/zero/1.0/">
        <cc:permits
           rdf:resource="http://creativecommons.org/ns#Reproduction" />
        <cc:permits
           rdf:resource="http://creativecommons.org/ns#Distribution" />
        <cc:permits
           rdf:resource="http://creativecommons.org/ns#DerivativeWorks" />
      </cc:License>
    </rdf:RDF>
  </metadata>
</svg>
